<?xml version="1.0" standalone="no"?>
<!DOCTYPE svg PUBLIC "-//W3C//DTD SVG 20010904//EN"
 "http://www.w3.org/TR/2001/REC-SVG-20010904/DTD/svg10.dtd">
<svg version="1.0" xmlns="http://www.w3.org/2000/svg"
 width="512.000000pt" height="512.000000pt" viewBox="0 0 512.000000 512.000000"
 preserveAspectRatio="xMidYMid meet">

<g transform="translate(0.000000,512.000000) scale(0.100000,-0.100000)"
fill="#000000" stroke="none">
<path d="M740 4633 c-19 -3 -38 -8 -43 -12 -22 -22 239 -576 395 -836 100
-167 185 -295 197 -295 16 0 102 82 117 112 9 17 16 53 16 79 -1 43 -25 96
-209 461 -114 226 -218 425 -231 440 -46 55 -104 67 -242 51z"/>
<path d="M457 4589 c-83 -20 -231 -154 -312 -284 -95 -152 -131 -289 -142
-545 -28 -659 281 -1398 858 -2054 478 -544 1112 -965 1708 -1136 262 -74 423
-95 706 -87 243 6 343 26 481 95 192 97 381 305 362 398 -2 9 -62 39 -149 74
-289 114 -657 307 -932 486 -70 46 -130 84 -132 84 -2 0 -33 -36 -69 -80 -73
-88 -104 -108 -174 -116 -56 -7 -141 21 -299 98 -590 286 -1158 885 -1377
1455 -64 166 -47 232 86 339 l76 61 -64 99 c-216 333 -388 661 -518 988 -29
71 -56 131 -61 132 -6 1 -27 -2 -48 -7z"/>
<path d="M1380 4195 c0 -3 45 -95 100 -205 55 -110 100 -205 100 -212 0 -19
1390 -1403 1427 -1422 43 -22 98 -20 147 4 28 13 335 314 940 919 888 888 900
900 872 910 -28 11 -3586 17 -3586 6z"/>
<path d="M4475 3420 l-630 -630 638 -638 637 -637 0 1255 c0 690 -4 1260 -8
1267 -5 8 -219 -199 -637 -617z"/>
<path d="M1546 3503 c-23 -45 -70 -88 -253 -230 -122 -95 -173 -141 -173 -155
0 -30 55 -160 116 -278 101 -191 247 -395 405 -564 l72 -77 294 293 c161 161
293 297 293 303 0 11 -721 735 -732 735 -4 0 -14 -12 -22 -27z"/>
<path d="M2131 2376 l-294 -294 38 -34 c136 -120 345 -261 511 -346 123 -62
238 -112 260 -112 7 0 80 86 163 191 161 206 208 249 300 276 64 18 165 13
223 -11 21 -9 224 -111 452 -227 448 -227 472 -244 522 -346 15 -30 28 -78 31
-112 l6 -61 306 0 c281 0 310 2 349 20 23 10 42 23 42 27 0 4 -296 304 -657
665 l-657 658 -221 -220 c-264 -262 -285 -275 -430 -275 -137 1 -150 9 -415
272 -124 123 -228 223 -231 223 -2 0 -136 -132 -298 -294z"/>
<path d="M3134 1886 c-26 -12 -124 -111 -124 -126 0 -6 190 -128 330 -211 215
-127 527 -279 767 -372 l41 -16 12 85 c7 46 9 101 5 120 -13 74 -51 98 -495
320 -438 219 -469 231 -536 200z"/>
</g>
</svg>
