<?xml version="1.0" standalone="no"?>
<!DOCTYPE svg PUBLIC "-//W3C//DTD SVG 20010904//EN"
 "http://www.w3.org/TR/2001/REC-SVG-20010904/DTD/svg10.dtd">
<svg version="1.0" xmlns="http://www.w3.org/2000/svg"
 width="512.000000pt" height="512.000000pt" viewBox="0 0 512.000000 512.000000"
 preserveAspectRatio="xMidYMid meet">

<g transform="translate(0.000000,512.000000) scale(0.100000,-0.100000)"
fill="#000000" stroke="none">
<path d="M1126 4939 c-113 -27 -224 -121 -279 -237 l-32 -67 0 -2076 0 -2075
37 -75 c46 -93 112 -158 206 -202 l67 -32 1435 0 1435 0 67 32 c94 44 160 109
206 202 l37 75 3 1693 2 1693 -302 0 c-335 0 -381 6 -490 61 -82 41 -186 145
-227 227 -55 109 -61 155 -61 490 l0 302 -1032 -1 c-583 -1 -1050 -5 -1072
-10z m1116 -366 c96 -42 169 -136 140 -179 -7 -11 -45 -34 -56 -34 -3 0 -32
24 -66 54 -58 52 -127 83 -162 72 -7 -2 -25 -7 -41 -10 -39 -9 -104 -71 -135
-130 -25 -46 -27 -61 -27 -161 0 -100 2 -115 27 -161 28 -54 84 -109 125 -125
68 -26 166 1 215 59 25 30 58 52 77 52 20 0 51 -39 51 -64 0 -36 -73 -111
-142 -145 -145 -73 -312 -20 -408 129 -87 135 -94 334 -18 484 29 56 100 128
152 154 92 46 170 47 268 5z m266 13 c5 -6 58 -145 118 -309 59 -163 111 -294
115 -290 4 5 53 136 110 293 56 157 109 293 117 303 30 34 102 10 102 -34 0
-32 -264 -743 -282 -761 -24 -24 -80 -23 -103 2 -9 10 -78 185 -151 387 -112
305 -133 372 -124 391 16 37 75 48 98 18z m-598 -1230 c73 -37 135 -98 173
-171 30 -56 32 -66 32 -165 0 -96 -3 -110 -29 -164 -39 -79 -102 -140 -184
-179 -60 -29 -77 -32 -157 -32 -76 0 -99 4 -147 27 -305 142 -299 564 9 694
51 22 70 24 153 21 80 -3 104 -8 150 -31z m1294 -158 c23 -32 20 -54 -10 -77
-25 -20 -39 -21 -291 -21 l-264 0 -25 25 c-19 19 -23 31 -18 48 14 48 11 47
310 47 281 0 283 0 298 -22z m640 -500 c22 -31 20 -45 -9 -73 l-24 -25 -586 0
-586 0 -25 25 c-19 19 -23 31 -18 48 15 49 -11 47 630 47 l603 0 15 -22z
m-1680 -159 c51 -14 121 -80 142 -135 39 -104 -6 -225 -105 -276 l-53 -28
-402 0 c-369 0 -404 2 -441 19 -77 36 -135 124 -135 204 0 85 73 190 150 214
47 15 790 17 844 2z m1830 -335 c24 -23 20 -70 -6 -88 -20 -14 -102 -16 -686
-16 l-663 0 -25 25 c-19 19 -23 31 -18 48 15 49 -16 47 705 47 603 0 679 -2
693 -16z m-2206 -496 c24 -31 23 -57 -2 -83 l-25 -25 -303 0 c-336 0 -348 2
-348 60 0 60 0 60 349 60 243 0 321 -3 329 -12z m2206 -4 c24 -23 20 -70 -6
-88 -20 -14 -125 -16 -933 -16 -1010 0 -955 -4 -955 64 0 17 5 37 12 44 9 9
231 12 939 12 830 0 929 -2 943 -16z m-2206 -496 c24 -31 23 -57 -2 -83 l-25
-25 -303 0 c-336 0 -348 2 -348 60 0 60 0 60 349 60 243 0 321 -3 329 -12z
m2206 -4 c24 -23 20 -70 -6 -88 -34 -24 -1832 -24 -1866 0 -25 17 -31 71 -10
92 9 9 231 12 939 12 830 0 929 -2 943 -16z m-2206 -496 c24 -31 23 -57 -2
-83 l-25 -25 -303 0 c-336 0 -348 2 -348 60 0 60 0 60 349 60 243 0 321 -3
329 -12z m2206 -4 c24 -23 20 -70 -6 -88 -20 -14 -125 -16 -933 -16 -1010 0
-955 -4 -955 64 0 17 5 37 12 44 9 9 231 12 939 12 830 0 929 -2 943 -16z"/>
<path d="M3352 4590 l3 -285 32 -67 c44 -94 109 -160 202 -206 l75 -37 235 -3
c130 -2 257 -2 284 0 l47 3 -440 440 -441 440 3 -285z"/>
</g>
</svg>
