<?xml version="1.0" encoding="utf-8"?>
<!-- Generator: Adobe Illustrator 23.0.1, SVG Export Plug-In . SVG Version: 6.00 Build 0)  -->
<svg version="1.1" id="Calque_1" xmlns="http://www.w3.org/2000/svg" xmlns:xlink="http://www.w3.org/1999/xlink" x="0px" y="0px"
	 viewBox="0 0 595.28 841.89" style="enable-background:new 0 0 595.28 841.89;" xml:space="preserve">
<style type="text/css">
	.st0{fill:#FFFFFF;}
	.st1{clip-path:url(#SVGID_2_);}
	.st2{clip-path:url(#SVGID_2_);fill:#FFFFFF;}
	.st3{clip-path:url(#SVGID_4_);}
	.st4{clip-path:url(#SVGID_6_);}
	.st5{clip-path:url(#SVGID_8_);fill:#FFFFFF;}
	.st6{clip-path:url(#SVGID_8_);}
	.st7{clip-path:url(#SVGID_4_);fill:none;stroke:#000000;stroke-width:5.9892;stroke-miterlimit:10;}
</style>
<circle class="st0" cx="297.36" cy="411.91" r="294.23"/>
<circle cx="297.36" cy="411.91" r="287.23"/>
<polygon class="st0" points="314.02,210.05 311.57,413.59 368.87,480.58 371.32,307.53 399.73,331.15 428.13,302.8 426.17,546.28 
	485.43,609.41 485.43,212.63 453.11,213.06 402.67,259.86 348.79,210.05 "/>
<polygon class="st0" points="105.68,213.06 104.7,609.41 162,545.42 162,307.53 191.39,330.29 218.81,302.8 218.81,478.43 
	278.07,414.02 278.07,210.05 241.83,210.05 195.3,249.99 191.39,254.28 138.98,212.73 "/>
<g>
	<g>
		<defs>
			<rect id="SVGID_1_" x="177.8" y="480.39" width="229.99" height="191.76"/>
		</defs>
		<clipPath id="SVGID_2_">
			<use xlink:href="#SVGID_1_"  style="overflow:visible;"/>
		</clipPath>
		<rect x="177.8" y="480.39" class="st1" width="229.99" height="191.76"/>
		<polygon class="st2" points="214.97,529.61 214.97,625.04 296.56,672.14 298.67,672.14 380.25,625.04 380.25,529.61 297.61,481.9 
					"/>
		<g class="st1">
			<defs>
				<rect id="SVGID_3_" x="177.8" y="480.39" width="229.99" height="191.76"/>
			</defs>
			<clipPath id="SVGID_4_">
				<use xlink:href="#SVGID_3_"  style="overflow:visible;"/>
			</clipPath>
			<g class="st3">
				<defs>
					<rect id="SVGID_5_" x="237.1" y="517.1" width="119.72" height="119.72"/>
				</defs>
				<clipPath id="SVGID_6_">
					<use xlink:href="#SVGID_5_"  style="overflow:visible;"/>
				</clipPath>
				<g class="st4">
					<defs>
						<rect id="SVGID_7_" x="237.1" y="517.1" width="119.72" height="119.72"/>
					</defs>
					<clipPath id="SVGID_8_">
						<use xlink:href="#SVGID_7_"  style="overflow:visible;"/>
					</clipPath>
					<path class="st5" d="M237.1,517.1c39.91,0,79.81,0,119.72,0c0,39.91,0,79.81,0,119.72c-39.91,0-79.81,0-119.72,0
						C237.1,596.91,237.1,557.01,237.1,517.1 M269.75,548.79c-7.27,7.28-11.25,16.02-11.81,26.39h18.83
						c0.19-6.9,0.99-13.65,2.82-20.17c-1.78-1.01-3.48-1.88-5.08-2.89C272.91,551.1,271.4,549.95,269.75,548.79 M269.71,604.72
						c3.3-2.08,6.55-4.13,9.85-6.22c-1.86-6.48-2.58-13.21-2.81-19.99h-18.73C258.08,587.5,262.58,598.29,269.71,604.72
						 M317.39,578.48c-0.2,6.9-0.98,13.62-2.78,20.01c3.34,2.11,6.57,4.16,9.93,6.28c7.15-7.17,11.12-15.92,11.68-26.3H317.39z
						 M336.22,575.2c-0.62-10.42-4.56-19.16-11.7-26.26c-3.41,2.15-6.65,4.19-9.93,6.25c1.85,6.48,2.57,13.22,2.81,20.01H336.22z
						 M295.4,575.2v-16.2c-4.34-0.86-8.55-1.69-12.88-2.54c-1.63,5.99-2.49,12.27-2.54,18.75H295.4z M295.44,578.54h-15.48
						c0.11,6.49,0.92,12.76,2.56,18.69c4.39-0.86,8.63-1.69,12.92-2.53V578.54z M298.74,559v16.16h15.46
						c-0.09-6.47-0.91-12.74-2.57-18.7C307.3,557.32,303.09,558.15,298.74,559 M298.75,578.48v16.2c4.35,0.85,8.55,1.68,12.88,2.53
						c1.65-5.98,2.49-12.27,2.56-18.73H298.75z M295.38,615.8v-17.57c-4.13,0.14-8,0.95-11.86,2.36c1.69,4.71,3.67,9.15,7.31,12.62
						C292.11,614.43,293.56,615.36,295.38,615.8 M295.4,555.45v-17.78c-7,2.97-9.4,9.15-11.92,15.4
						C287.4,554.51,291.27,555.32,295.4,555.45 M298.76,537.89v17.56c4.13-0.14,8.01-0.92,11.85-2.34
						c-1.58-4.47-3.46-8.66-6.72-12.07C302.49,539.57,300.88,538.38,298.76,537.89 M298.74,598.23v17.51
						c4.62-0.96,11.15-9.48,11.71-15.25C306.71,599.16,302.86,598.35,298.74,598.23 M306.07,538.73c3.64,3.9,5.78,8.36,7.59,13.35
						c2.85-1.81,5.57-3.53,8.44-5.34C317.24,542.76,312.09,540.2,306.07,538.73 M306.37,614.8c5.79-1.36,10.93-3.91,15.56-7.72
						c-2.63-2.13-5.33-3.9-8.35-5.26C311.84,606.62,309.71,611.04,306.37,614.8 M272.05,606.96c4.85,3.93,9.98,6.51,16.05,8
						c-3.72-3.93-5.79-8.41-7.62-13.34C277.61,603.43,274.91,605.14,272.05,606.96 M288.09,538.74c-6.05,1.47-11.19,4.04-16.02,8
						c2.88,1.81,5.6,3.53,8.44,5.31C282.3,547.07,284.42,542.64,288.09,538.74"/>
					<path class="st6" d="M269.75,548.79c1.65,1.16,3.16,2.31,4.76,3.33c1.6,1.01,3.3,1.88,5.08,2.89
						c-1.83,6.52-2.63,13.27-2.82,20.17h-18.83C258.5,564.81,262.48,556.07,269.75,548.79"/>
					<path class="st6" d="M269.71,604.72c-7.13-6.43-11.63-17.22-11.69-26.21h18.73c0.23,6.78,0.94,13.51,2.81,19.99
						C276.26,600.58,273.01,602.64,269.71,604.72"/>
					<path class="st6" d="M317.39,578.48h18.82c-0.56,10.38-4.54,19.12-11.68,26.3c-3.36-2.12-6.59-4.17-9.93-6.28
						C316.4,592.09,317.18,585.37,317.39,578.48"/>
					<path class="st6" d="M336.23,575.2H317.4c-0.24-6.79-0.96-13.53-2.81-20.01c3.28-2.07,6.52-4.11,9.93-6.26
						C331.66,556.03,335.61,564.78,336.23,575.2"/>
					<path class="st6" d="M295.4,575.2h-15.43c0.06-6.47,0.92-12.76,2.54-18.75c4.34,0.86,8.54,1.69,12.88,2.54V575.2z"/>
					<path class="st6" d="M295.44,578.54v16.15c-4.29,0.84-8.53,1.67-12.92,2.53c-1.64-5.92-2.45-12.2-2.56-18.69H295.44z"/>
					<path class="st6" d="M298.74,559c4.36-0.86,8.56-1.69,12.89-2.54c1.65,5.96,2.48,12.23,2.57,18.7h-15.46V559z"/>
					<path class="st6" d="M298.75,578.48h15.44c-0.06,6.46-0.91,12.75-2.56,18.73c-4.33-0.85-8.53-1.68-12.88-2.53V578.48z"/>
					<path class="st6" d="M295.38,615.8c-1.82-0.44-3.27-1.37-4.55-2.59c-3.65-3.47-5.62-7.91-7.31-12.62
						c3.86-1.41,7.74-2.22,11.86-2.36V615.8z"/>
					<path class="st6" d="M295.4,555.45c-4.13-0.13-8-0.94-11.92-2.38c2.53-6.25,4.92-12.43,11.92-15.4V555.45z"/>
					<path class="st6" d="M298.76,537.89c2.12,0.49,3.73,1.68,5.13,3.15c3.26,3.41,5.14,7.6,6.72,12.07
						c-3.85,1.41-7.73,2.2-11.85,2.34V537.89z"/>
					<path class="st6" d="M298.74,598.23c4.12,0.12,7.97,0.93,11.71,2.26c-0.56,5.77-7.09,14.29-11.71,15.25V598.23z"/>
					<path class="st6" d="M306.07,538.73c6.03,1.47,11.17,4.03,16.03,8c-2.87,1.82-5.59,3.54-8.44,5.35
						C311.85,547.09,309.71,542.63,306.07,538.73"/>
					<path class="st6" d="M306.37,614.8c3.34-3.76,5.47-8.17,7.2-12.98c3.03,1.36,5.72,3.13,8.35,5.26
						C317.3,610.89,312.16,613.44,306.37,614.8"/>
					<path class="st6" d="M272.05,606.96c2.86-1.81,5.56-3.52,8.43-5.34c1.83,4.93,3.9,9.41,7.62,13.34
						C282.02,613.47,276.9,610.89,272.05,606.96"/>
					<path class="st6" d="M288.09,538.74c-3.67,3.9-5.78,8.33-7.58,13.31c-2.84-1.78-5.56-3.5-8.44-5.31
						C276.89,542.78,282.04,540.21,288.09,538.74"/>
				</g>
			</g>
			<polygon class="st7" points="298.01,661.12 226.56,619.86 226.56,537.36 298.01,496.11 369.46,537.36 369.46,619.86 			"/>
		</g>
	</g>
</g>
</svg>
