<?xml version="1.0" standalone="no"?>
<!DOCTYPE svg PUBLIC "-//W3C//DTD SVG 20010904//EN"
 "http://www.w3.org/TR/2001/REC-SVG-20010904/DTD/svg10.dtd">
<svg version="1.0" xmlns="http://www.w3.org/2000/svg"
 width="1200.000000pt" height="1200.000000pt" viewBox="0 0 1200.000000 1200.000000"
 preserveAspectRatio="xMidYMid meet">

<g transform="translate(0.000000,1200.000000) scale(0.100000,-0.100000)"
fill="#000000" stroke="none">
<path d="M5593 11479 c-561 -35 -1144 -168 -1678 -380 -210 -83 -570 -263
-768 -382 -412 -250 -740 -510 -1083 -859 -319 -325 -556 -631 -789 -1018
-113 -188 -294 -552 -374 -755 -425 -1068 -505 -2222 -231 -3332 93 -376 212
-704 385 -1059 269 -554 579 -993 1009 -1432 343 -349 675 -612 1084 -859 189
-114 582 -310 782 -389 738 -291 1551 -422 2330 -374 1177 73 2261 504 3170
1260 161 134 536 509 670 670 200 240 393 517 545 779 101 175 268 517 340
701 511 1288 511 2729 1 4020 -79 200 -275 593 -389 782 -247 409 -510 741
-859 1084 -439 430 -878 740 -1432 1009 -644 313 -1314 489 -2041 535 -180 11
-489 11 -672 -1z m742 -469 c1367 -101 2665 -800 3518 -1893 532 -681 876
-1484 1001 -2337 67 -454 67 -986 0 -1440 -274 -1867 -1585 -3419 -3380 -4004
-257 -83 -545 -151 -814 -190 -452 -67 -988 -67 -1440 0 -1727 254 -3197 1398
-3865 3009 -166 399 -287 855 -340 1280 -49 392 -49 856 0 1250 202 1624 1219
3066 2685 3806 136 68 383 179 388 174 2 -2 -119 -223 -268 -492 l-273 -488
-104 -73 c-231 -162 -469 -370 -679 -594 -685 -729 -1106 -1710 -1160 -2703
l-7 -130 -268 -482 c-148 -265 -269 -485 -269 -490 0 -4 162 -98 360 -208
l360 -200 31 -95 c339 -1027 1067 -1909 2015 -2441 499 -280 1040 -453 1644
-526 181 -22 711 -25 895 -5 181 19 410 59 600 103 166 39 519 150 551 173 13
10 -449 272 -2835 1606 -1568 876 -2850 1594 -2848 1596 8 8 3711 923 3716
919 3 -3 141 -429 307 -946 166 -517 304 -943 307 -946 3 -3 384 77 847 177
470 102 845 179 849 174 5 -5 163 -441 351 -969 189 -528 348 -973 354 -989
l11 -29 110 91 c61 50 127 106 147 124 l37 33 -325 905 c-178 498 -322 910
-320 915 2 6 441 104 976 220 943 204 973 211 982 235 9 23 68 352 64 357 -1
1 -865 -185 -1920 -413 -1055 -229 -1919 -414 -1921 -412 -8 9 -1677 5219
-1673 5224 4 3 5249 -2902 5446 -3017 l34 -19 -7 42 c-4 24 -29 129 -55 233
-242 955 -807 1802 -1609 2409 -605 458 -1304 736 -2121 843 -170 22 -764 26
-930 5 -167 -21 -345 -50 -477 -78 l-121 -27 -366 204 c-201 111 -366 206
-366 210 0 9 230 89 380 133 318 92 660 156 1000 185 140 12 634 12 795 1z
m-1491 -2670 c327 -1019 594 -1855 593 -1855 -8 -7 -3770 -935 -3773 -932 -4
4 2579 4647 2583 4643 1 0 269 -836 597 -1856z"/>
</g>
</svg>
