<?xml version="1.0" standalone="no"?>
<!DOCTYPE svg PUBLIC "-//W3C//DTD SVG 20010904//EN"
 "http://www.w3.org/TR/2001/REC-SVG-20010904/DTD/svg10.dtd">
<svg version="1.0" xmlns="http://www.w3.org/2000/svg"
 width="512.000000pt" height="512.000000pt" viewBox="0 0 512.000000 512.000000"
 preserveAspectRatio="xMidYMid meet">

<g transform="translate(0.000000,512.000000) scale(0.100000,-0.100000)"
fill="#000000" stroke="none">
<path d="M280 4921 c-139 -45 -243 -160 -270 -300 -14 -74 -14 -2648 0 -2722
25 -133 131 -255 262 -302 24 -8 224 -13 713 -17 l680 -5 3 -257 2 -258 -120
0 c-80 0 -131 -5 -153 -14 -39 -16 -82 -61 -96 -99 -25 -65 -3 -155 47 -200
51 -46 49 -46 937 -47 548 0 853 4 877 10 145 41 175 235 51 320 -33 23 -49
25 -167 30 l-131 5 0 255 0 255 303 3 302 2 0 180 0 180 -1574 0 c-1426 0
-1574 1 -1580 16 -3 9 -6 597 -6 1309 0 1075 2 1294 14 1304 10 8 521 10 1927
9 l1914 -3 3 -992 2 -993 180 0 180 0 0 1004 c0 980 0 1005 -20 1070 -40 127
-144 227 -272 262 -45 12 -361 14 -2003 13 -1836 0 -1953 -1 -2005 -18z"/>
<path d="M3918 2356 c-66 -18 -116 -60 -144 -120 l-24 -51 0 -915 c0 -870 1
-917 19 -955 10 -22 34 -54 52 -72 68 -64 58 -63 606 -63 320 0 512 4 536 11
53 14 110 69 136 129 l21 50 -2 917 c-3 1019 2 941 -70 1013 -66 66 -52 65
-593 67 -373 2 -501 -1 -537 -11z m932 -1011 l0 -755 -415 0 -415 0 0 755 0
755 415 0 415 0 0 -755z m-382 -856 c53 -18 79 -88 52 -140 -16 -30 -68 -52
-105 -45 -89 17 -106 138 -25 178 41 21 39 21 78 7z"/>
</g>
</svg>
