<?xml version="1.0" standalone="no"?>
<!DOCTYPE svg PUBLIC "-//W3C//DTD SVG 20010904//EN"
 "http://www.w3.org/TR/2001/REC-SVG-20010904/DTD/svg10.dtd">
<svg version="1.0" xmlns="http://www.w3.org/2000/svg"
 width="512.000000pt" height="512.000000pt" viewBox="0 0 512.000000 512.000000"
 preserveAspectRatio="xMidYMid meet">

<g transform="translate(0.000000,512.000000) scale(0.100000,-0.100000)"
fill="#000000" stroke="none">
<path d="M2245 4360 c-289 -32 -543 -253 -615 -536 -19 -74 -20 -115 -20
-1076 l0 -998 153 0 c145 0 158 2 294 39 176 48 221 69 277 132 64 71 86 137
86 255 0 67 -4 96 -12 98 -7 2 -46 9 -87 15 -189 29 -339 162 -395 350 -14 47
-16 125 -16 563 0 346 3 516 11 530 20 37 62 43 324 43 293 0 286 2 340 -106
95 -193 236 -314 409 -354 137 -31 146 -35 166 -68 19 -31 20 -56 20 -771 l0
-738 23 6 c12 3 127 6 255 6 l233 0 -3 1008 c-4 1127 1 1047 -78 1207 -91 185
-236 307 -445 376 -68 22 -83 23 -460 25 -214 1 -422 -2 -460 -6z"/>
<path d="M1911 928 l-1 -598 530 0 530 0 0 425 0 424 -74 -40 c-41 -22 -105
-46 -142 -54 -92 -19 -327 -19 -419 0 -197 42 -357 193 -410 388 -12 46 -14
-13 -14 -545z"/>
</g>
</svg>
