<?xml version="1.0" standalone="no"?>
<!DOCTYPE svg PUBLIC "-//W3C//DTD SVG 20010904//EN"
 "http://www.w3.org/TR/2001/REC-SVG-20010904/DTD/svg10.dtd">
<svg version="1.0" xmlns="http://www.w3.org/2000/svg"
 width="512.000000pt" height="512.000000pt" viewBox="0 0 512.000000 512.000000"
 preserveAspectRatio="xMidYMid meet">

<g transform="translate(0.000000,512.000000) scale(0.100000,-0.100000)"
fill="#000000" stroke="none">
<path d="M2281 4903 c-53 -10 -1809 -617 -1852 -640 -187 -101 -302 -327 -270
-532 13 -86 959 -2850 1003 -2934 18 -33 59 -84 97 -120 111 -104 238 -152
387 -145 45 1 85 6 89 9 3 4 -12 35 -34 70 -22 35 -52 100 -66 143 -47 141
-45 184 34 806 39 305 74 566 76 580 5 24 -6 31 -207 132 -237 119 -300 166
-363 273 -95 160 -102 371 -17 529 34 65 153 186 212 216 121 62 257 83 365
58 l60 -14 60 64 59 64 33 256 c36 280 48 332 98 432 67 133 177 238 317 305
133 63 256 77 451 51 111 -14 104 -23 65 81 -52 142 -196 267 -355 308 -53 14
-187 18 -242 8z m-1536 -907 c19 -8 44 -30 55 -48 33 -54 26 -102 -31 -219
-54 -110 -74 -139 -96 -139 -25 0 -238 108 -261 133 -28 29 -44 82 -35 116 16
70 89 120 157 107 24 -5 37 -2 47 10 42 51 103 65 164 40z"/>
<path d="M2533 4355 c-189 -41 -351 -201 -397 -390 -8 -33 -99 -724 -202
-1536 l-188 -1476 16 -80 c37 -190 160 -337 336 -403 40 -15 168 -36 432 -70
1107 -144 1486 -190 1548 -190 221 0 419 143 492 356 15 42 73 469 205 1504
101 795 187 1472 190 1505 8 75 -14 185 -53 270 -63 134 -208 247 -359 280
-85 19 -1865 245 -1919 244 -21 0 -67 -7 -101 -14z m49 -322 c18 -19 22 -19
62 -5 40 15 47 14 89 -2 80 -30 112 -121 68 -192 -20 -33 -213 -184 -235 -184
-21 0 -41 21 -115 118 -77 102 -95 145 -80 194 10 35 44 76 74 89 33 15 114 4
137 -18z m613 -968 c75 -20 150 -56 205 -99 l42 -33 58 24 c118 47 214 54 334
23 105 -27 169 -63 247 -141 128 -127 182 -302 149 -480 -14 -75 -81 -205
-133 -260 -57 -59 -637 -506 -696 -536 -91 -47 -224 -21 -297 58 -69 75 -494
641 -518 691 -125 256 -22 571 232 706 111 59 258 77 377 47z m1073 -2259 c74
-98 82 -113 82 -153 0 -63 -23 -101 -76 -125 -50 -22 -91 -18 -134 12 -22 16
-32 17 -66 8 -91 -25 -163 22 -172 110 -6 70 11 95 125 184 134 105 134 105
241 -36z"/>
<path d="M2970 2916 c-103 -30 -193 -104 -243 -201 -30 -56 -32 -67 -32 -165
0 -99 2 -109 33 -170 34 -68 437 -602 497 -657 37 -36 82 -43 121 -20 60 35
612 468 649 510 64 70 89 141 90 252 0 82 -3 96 -33 157 -59 120 -161 197
-287 218 -94 15 -203 -8 -275 -60 -50 -36 -85 -27 -156 39 -42 40 -81 66 -121
81 -71 27 -182 34 -243 16z"/>
<path d="M1545 3197 c-117 -30 -214 -109 -263 -215 -24 -50 -27 -69 -27 -162
0 -95 3 -111 28 -163 48 -98 103 -141 302 -240 98 -48 179 -86 181 -85 2 2 26
181 53 398 28 217 53 407 55 422 5 25 4 26 -23 17 -22 -8 -40 -5 -79 10 -66
26 -164 34 -227 18z"/>
</g>
</svg>
