<?xml version="1.0" standalone="no"?>
<!DOCTYPE svg PUBLIC "-//W3C//DTD SVG 20010904//EN"
 "http://www.w3.org/TR/2001/REC-SVG-20010904/DTD/svg10.dtd">
<svg version="1.0" xmlns="http://www.w3.org/2000/svg"
 width="512.000000pt" height="512.000000pt" viewBox="0 0 512.000000 512.000000"
 preserveAspectRatio="xMidYMid meet">

<g transform="translate(0.000000,512.000000) scale(0.100000,-0.100000)"
fill="#000000" stroke="none">
<path d="M1033 4864 c-52 -19 -128 -98 -142 -150 -25 -91 -7 -168 56 -235 92
-98 227 -106 327 -18 24 21 49 52 56 69 l12 30 369 0 369 0 0 -120 0 -120
-895 0 -896 0 -24 -25 -25 -24 0 -1551 0 -1551 25 -24 24 -25 896 0 895 0 0
-280 0 -280 -440 0 -440 0 0 -160 0 -160 1360 0 1360 0 0 160 0 160 -440 0
-440 0 0 280 0 280 895 0 896 0 24 25 25 24 0 1551 0 1551 -25 24 -24 25 -896
0 -895 0 0 120 0 120 369 0 369 0 12 -30 c7 -17 32 -48 56 -69 97 -85 228 -80
321 11 178 175 0 467 -241 396 -45 -13 -146 -105 -146 -132 0 -14 -46 -16
-425 -16 l-426 0 -24 -25 c-25 -24 -25 -27 -25 -200 l0 -175 -320 0 -320 0 0
175 c0 173 0 176 -25 200 l-24 25 -424 0 -425 0 -12 30 c-17 42 -90 104 -138
118 -51 16 -107 14 -159 -4z m1047 -1157 l0 -453 -70 -69 -70 -69 64 -66 64
-65 -25 -52 -24 -53 -90 0 -89 0 0 -40 0 -40 -409 0 -409 0 -12 30 c-28 68
-129 130 -212 130 -125 0 -238 -113 -238 -240 0 -127 113 -240 238 -240 83 0
184 62 212 130 l12 30 409 0 409 0 0 -40 0 -40 89 0 90 0 24 -52 25 -53 -67
-68 -66 -67 110 -110 c60 -61 114 -110 120 -110 5 0 37 27 70 60 l61 60 52
-22 52 -22 0 -88 0 -88 160 0 160 0 0 90 0 90 53 24 52 24 68 -67 67 -66 112
113 113 112 -64 64 -64 65 20 53 20 53 92 3 91 3 0 39 0 40 409 0 409 0 12
-30 c7 -17 32 -48 56 -69 97 -85 232 -80 322 12 95 97 95 241 -1 335 -67 66
-151 86 -241 60 -45 -13 -146 -105 -146 -132 0 -14 -45 -16 -410 -16 l-410 0
0 40 0 40 -89 0 -90 0 -24 53 -25 52 64 65 64 66 -70 69 -70 69 0 453 0 453
840 0 840 0 0 -1280 0 -1280 -2160 0 -2160 0 0 1280 0 1280 840 0 840 0 0
-453z m800 5 l0 -448 -27 -26 -28 -25 -52 24 -53 24 0 90 0 89 -160 0 -160 0
0 -89 0 -90 -52 -24 -53 -24 -27 25 -28 26 0 448 0 448 320 0 320 0 0 -448z
m-185 -703 c63 -30 123 -90 155 -154 35 -71 35 -197 0 -270 -31 -64 -91 -124
-155 -155 -73 -35 -199 -35 -270 0 -64 31 -124 91 -155 155 -35 71 -35 197 0
270 42 86 123 152 215 176 54 14 156 3 210 -22z"/>
<path d="M585 3895 c-16 -15 -25 -36 -25 -55 0 -19 9 -40 25 -55 24 -25 24
-25 240 -25 l215 0 0 -335 0 -336 25 -24 24 -25 271 0 271 0 24 25 c33 32 33
78 0 110 -24 25 -24 25 -240 25 l-215 0 0 335 0 336 -25 24 -24 25 -271 0
-271 0 -24 -25z"/>
<path d="M3865 3895 l-25 -24 0 -336 0 -335 -215 0 c-216 0 -216 0 -240 -25
-16 -15 -25 -36 -25 -55 0 -19 9 -40 25 -55 l24 -25 271 0 271 0 24 25 25 24
0 336 0 335 215 0 c216 0 216 0 240 25 16 15 25 36 25 55 0 19 -9 40 -25 55
l-24 25 -271 0 -271 0 -24 -25z"/>
</g>
</svg>
