<?xml version="1.0" standalone="no"?>
<!DOCTYPE svg PUBLIC "-//W3C//DTD SVG 20010904//EN"
 "http://www.w3.org/TR/2001/REC-SVG-20010904/DTD/svg10.dtd">
<svg version="1.0" xmlns="http://www.w3.org/2000/svg"
 width="512.000000pt" height="512.000000pt" viewBox="0 0 512.000000 512.000000"
 preserveAspectRatio="xMidYMid meet">

<g transform="translate(0.000000,512.000000) scale(0.100000,-0.100000)"
fill="#000000" stroke="none">
<path d="M2478 4940 c-21 -5 -68 -25 -106 -44 -104 -52 -142 -60 -302 -61
-136 0 -148 -2 -204 -28 -43 -20 -83 -52 -150 -121 -96 -98 -145 -130 -269
-172 -129 -44 -196 -113 -245 -252 -41 -116 -87 -185 -173 -264 -51 -46 -88
-89 -110 -131 -34 -62 -34 -62 -35 -207 -2 -165 -9 -200 -67 -325 -39 -85 -42
-95 -42 -180 0 -85 2 -95 42 -175 58 -120 65 -155 67 -320 1 -135 3 -149 27
-200 27 -56 47 -79 137 -162 70 -65 117 -138 148 -230 46 -140 127 -228 243
-263 125 -39 192 -84 311 -210 33 -36 76 -68 110 -84 50 -24 70 -26 220 -31
149 -5 171 -8 225 -32 182 -79 178 -78 255 -78 58 0 88 6 135 26 33 14 87 38
120 52 54 23 77 27 230 32 157 6 174 8 220 32 28 14 73 50 100 79 121 129 163
159 278 201 175 63 226 114 283 281 25 73 66 144 108 187 13 14 51 52 85 84
35 34 73 83 89 115 25 53 27 64 28 201 2 165 9 199 67 319 40 81 42 91 42 176
0 84 -3 96 -41 180 -64 138 -68 156 -66 295 2 135 -13 209 -51 265 -11 16 -60
68 -108 115 -91 90 -123 140 -165 263 -46 135 -114 198 -276 253 -92 31 -164
81 -243 169 -50 56 -82 82 -133 107 -66 32 -69 33 -187 31 -151 -3 -206 7
-327 63 -104 49 -194 63 -270 44z m335 -355 c292 -51 550 -187 768 -404 209
-209 339 -447 400 -731 30 -141 33 -419 6 -555 -104 -512 -442 -916 -919
-1095 -184 -69 -283 -85 -513 -85 -180 1 -211 3 -311 27 -508 120 -908 485
-1062 968 -56 175 -66 248 -66 445 0 199 13 288 64 447 74 225 186 405 359
579 247 246 538 384 896 423 72 8 288 -3 378 -19z"/>
<path d="M2455 4434 c-141 -19 -192 -30 -275 -56 -193 -61 -352 -155 -495
-290 -365 -345 -495 -856 -338 -1333 106 -325 352 -604 662 -751 345 -165 756
-166 1098 -3 253 120 461 322 587 569 94 184 133 331 142 535 10 219 -32 419
-131 620 -176 357 -516 615 -909 690 -80 15 -286 27 -341 19z m733 -710 c87
-43 135 -126 135 -229 -1 -108 -7 -116 -510 -617 -439 -437 -460 -457 -512
-472 -72 -21 -109 -20 -174 4 -43 16 -75 42 -175 143 -72 73 -128 139 -137
162 -22 50 -22 150 -1 200 21 50 69 100 121 128 30 16 58 22 115 22 65 0 82
-4 124 -29 l48 -28 357 355 c219 219 369 362 391 371 58 25 157 20 218 -10z"/>
<path d="M2660 3204 c-206 -206 -388 -382 -404 -390 -39 -21 -72 -11 -128 42
-55 52 -92 57 -134 20 -21 -18 -28 -32 -28 -61 0 -34 9 -46 112 -147 110 -109
112 -111 149 -105 33 6 87 56 471 439 238 238 440 446 448 461 12 23 13 35 4
63 -13 40 -35 54 -82 54 -30 0 -65 -32 -408 -376z"/>
<path d="M1257 1112 c-119 -273 -221 -510 -227 -525 -12 -33 8 -90 37 -105 10
-6 119 -12 243 -14 194 -3 230 -6 260 -22 19 -10 91 -74 160 -142 102 -101
133 -126 162 -130 66 -11 76 6 317 540 122 269 219 491 217 494 -3 3 -30 15
-61 28 -30 13 -81 35 -112 49 -52 22 -72 25 -193 25 -219 0 -310 37 -450 183
-47 49 -97 95 -111 102 l-26 14 -216 -497z"/>
<path d="M3614 1591 c-17 -10 -57 -49 -90 -85 -72 -82 -168 -148 -254 -177
-55 -18 -87 -21 -205 -20 -128 0 -145 -2 -197 -24 -32 -14 -83 -36 -113 -49
-31 -13 -58 -26 -61 -29 -3 -3 94 -225 216 -493 241 -534 252 -551 318 -540
28 4 60 30 161 129 69 69 142 133 161 143 30 16 68 19 268 24 231 5 234 5 253
29 10 13 19 38 19 56 0 21 -77 209 -211 517 -116 265 -216 495 -222 511 l-12
27 -31 -19z"/>
</g>
</svg>
