<?xml version="1.0" standalone="no"?>
<!DOCTYPE svg PUBLIC "-//W3C//DTD SVG 20010904//EN"
 "http://www.w3.org/TR/2001/REC-SVG-20010904/DTD/svg10.dtd">
<svg version="1.0" xmlns="http://www.w3.org/2000/svg"
 width="512.000000pt" height="512.000000pt" viewBox="0 0 512.000000 512.000000"
 preserveAspectRatio="xMidYMid meet">

<g transform="translate(0.000000,512.000000) scale(0.100000,-0.100000)"
fill="#000000" stroke="none">
<path d="M1103 3981 c-75 -19 -132 -74 -153 -150 -6 -23 -10 -340 -10 -863 l0
-828 1620 0 1621 0 -3 848 c-3 805 -4 849 -22 882 -26 49 -45 69 -91 94 l-40
21 -1445 2 c-795 0 -1459 -2 -1477 -6z m2777 -961 l0 -640 -1320 0 -1320 0 0
640 0 640 1320 0 1320 0 0 -640z"/>
<path d="M968 2049 c-15 -8 -298 -468 -298 -483 0 -3 851 -6 1890 -6 1040 0
1890 3 1890 6 0 17 -284 475 -300 484 -26 14 -3158 13 -3182 -1z m1913 -269
c21 -12 25 -40 7 -58 -17 -17 -639 -17 -656 0 -17 17 -15 45 6 57 23 14 617
15 643 1z"/>
<path d="M606 1464 c-18 -47 11 -146 64 -213 28 -35 58 -59 107 -83 l68 -33
1715 0 1715 0 68 33 c49 24 79 48 107 83 53 67 82 166 64 213 -6 15 -187 16
-1954 16 -1767 0 -1948 -1 -1954 -16z"/>
</g>
</svg>
