<?xml version="1.0" standalone="no"?>
<!DOCTYPE svg PUBLIC "-//W3C//DTD SVG 20010904//EN"
 "http://www.w3.org/TR/2001/REC-SVG-20010904/DTD/svg10.dtd">
<svg version="1.0" xmlns="http://www.w3.org/2000/svg"
 width="512.000000pt" height="512.000000pt" viewBox="0 0 512.000000 512.000000"
 preserveAspectRatio="xMidYMid meet">

<g transform="translate(0.000000,512.000000) scale(0.100000,-0.100000)"
fill="#000000" stroke="none">
<path d="M2432 4779 c-100 -12 -70 -3 -1235 -353 -724 -217 -1061 -323 -1088
-340 -147 -98 -140 -342 13 -429 24 -14 277 -96 563 -182 286 -86 526 -162
533 -167 9 -8 12 -33 10 -82 -3 -64 -5 -71 -25 -74 -12 -2 -127 29 -255 67
-129 39 -246 71 -260 71 -59 0 -58 7 -58 -585 0 -589 2 -610 57 -705 39 -66
115 -135 186 -169 34 -16 128 -48 210 -72 l147 -44 0 -217 0 -216 -34 -12
c-52 -17 -124 -72 -165 -128 -64 -84 -73 -140 -69 -402 3 -253 8 -273 84 -340
69 -60 91 -65 279 -65 170 0 170 0 224 30 58 32 90 68 118 131 21 48 31 358
15 472 -19 136 -85 228 -208 288 l-74 37 0 984 c0 814 2 989 14 1017 13 31 27
38 327 159 505 202 489 195 489 224 0 16 -15 42 -39 68 -86 94 -65 222 52 306
154 112 516 102 656 -17 72 -62 100 -152 70 -231 -33 -88 -157 -160 -307 -179
-37 -4 -206 -67 -501 -186 -245 -99 -456 -186 -468 -194 -25 -16 -30 -46 -10
-62 15 -12 559 -176 660 -199 100 -22 308 -23 412 0 144 31 2204 654 2249 681
164 96 147 359 -29 437 -54 24 -2132 647 -2215 664 -90 18 -241 25 -328 14z"/>
<path d="M2433 3949 c-122 -24 -160 -84 -78 -123 94 -45 316 -47 402 -5 60 30
65 62 16 95 -57 38 -230 55 -340 33z"/>
<path d="M3640 3064 c-426 -128 -813 -241 -860 -251 -116 -23 -346 -23 -455 0
-60 13 -519 146 -695 202 -12 4 -27 -2 -39 -14 -21 -21 -21 -29 -21 -670 0
-371 4 -660 9 -674 8 -19 21 -26 68 -35 347 -68 858 -98 1228 -73 421 28 838
106 1232 230 83 26 151 55 190 80 69 45 134 123 166 203 22 52 22 64 25 624
l3 572 -27 21 c-15 12 -32 21 -38 20 -6 0 -360 -106 -786 -235z"/>
</g>
</svg>
