<?xml version="1.0" standalone="no"?>
<!DOCTYPE svg PUBLIC "-//W3C//DTD SVG 20010904//EN"
 "http://www.w3.org/TR/2001/REC-SVG-20010904/DTD/svg10.dtd">
<svg version="1.0" xmlns="http://www.w3.org/2000/svg"
 width="512.000000pt" height="512.000000pt" viewBox="0 0 512.000000 512.000000"
 preserveAspectRatio="xMidYMid meet">

<g transform="translate(0.000000,512.000000) scale(0.100000,-0.100000)"
fill="#000000" stroke="none">
<path d="M862 5105 c-149 -33 -273 -148 -328 -307 -18 -51 -19 -133 -19 -2238
0 -2105 1 -2187 19 -2238 56 -161 179 -275 333 -307 102 -22 3284 -22 3386 0
154 32 277 146 333 307 18 51 19 133 19 2238 0 2105 -1 2187 -19 2238 -56 161
-179 275 -333 307 -99 21 -3294 21 -3391 0z m3297 -389 c15 -8 32 -26 39 -41
17 -36 17 -3746 1 -3778 -6 -12 -21 -30 -33 -39 -20 -16 -119 -18 -1606 -18
-1487 0 -1586 2 -1606 18 -12 9 -27 27 -33 39 -18 35 -15 3750 3 3782 29 53
-56 50 1634 51 1342 0 1577 -2 1601 -14z m-1492 -4109 c98 -68 114 -211 33
-296 -31 -32 -97 -61 -140 -61 -43 0 -109 29 -140 61 -91 96 -57 259 65 315
48 23 136 13 182 -19z"/>
</g>
</svg>
